<svg width="720" height="211" viewBox="0 0 720 211" fill="none" xmlns="http://www.w3.org/2000/svg">
<path d="M719.341 189.96C719.341 190.24 719.341 190.94 719.341 190.94H705.201V171.34C701.561 183.66 693.861 191.78 680.421 191.78C668.941 191.78 657.741 186.32 655.921 176.24C653.541 161.96 662.081 153.56 672.861 149.08C669.221 140.96 673.561 123.6 692.321 123.6C703.941 123.6 716.261 129.76 716.261 146.98V181.7C716.261 186.6 717.241 188.7 719.341 189.96ZM691.061 125C678.461 125 670.061 137.18 674.261 148.52C681.821 145.72 690.221 144.74 696.801 144.74C700.021 144.74 702.821 145.3 705.201 146V145.02C705.201 134.38 701.001 125 691.061 125ZM683.781 189.96C695.961 189.26 702.401 178.9 705.201 168.82V147.26C704.501 146.98 701.141 146 696.801 146C681.541 146 660.821 153.56 666.841 178.2C668.661 185.76 676.781 190.38 683.781 189.96Z" fill="#7A695D"/>
<path d="M657.652 166.16L658.352 166.44C655.692 179.6 649.812 191.78 635.112 191.78C622.652 191.78 614.952 183.66 614.952 167.14V124.72H606.692V123.6C618.592 123.6 619.572 111.14 619.572 104.42H630.632C630.632 115.2 619.992 123.18 611.592 123.6H642.532V124.72H626.012V169.24C626.012 181.42 629.372 190.8 641.272 189.26C650.512 188 655.132 176.94 657.652 166.16Z" fill="#7A695D"/>
<path d="M595.025 181.7C595.025 186.6 596.005 188.7 598.245 189.96C598.245 190.24 598.245 190.94 598.245 190.94H580.885C580.885 190.94 580.885 190.24 580.885 189.96C582.985 188.7 583.965 186.6 583.965 181.7V134.38C583.965 129.48 583.545 128.08 580.885 127.66C580.885 127.38 580.885 126.68 580.885 126.68L594.045 123.6H595.025V181.7ZM589.145 112.26C585.505 112.26 582.565 109.32 582.565 105.68C582.565 102.04 585.505 99.1001 589.145 99.1001C592.785 99.1001 595.725 102.04 595.725 105.68C595.725 109.32 592.785 112.26 589.145 112.26Z" fill="#7A695D"/>
<path d="M573.872 94.0599C567.852 100.36 563.792 106.8 559.172 119.82L538.172 178.9L542.792 190.94H531.732C531.732 190.94 508.492 130.74 504.292 119.82C500.092 109.04 494.912 100.36 489.732 94.0599V92.9399H511.152V94.0599C507.652 97.6999 508.772 102.6 512.692 112.82L537.612 177.5L558.052 119.82C562.532 107.22 563.232 100.36 557.212 94.0599V92.9399H573.872V94.0599Z" fill="#7A695D"/>
<path d="M451.919 189.96C451.919 190.24 451.919 190.94 451.919 190.94H437.779V171.34C434.139 183.66 426.439 191.78 412.999 191.78C401.519 191.78 390.319 186.32 388.499 176.24C386.119 161.96 394.659 153.56 405.439 149.08C401.799 140.96 406.139 123.6 424.899 123.6C436.519 123.6 448.839 129.76 448.839 146.98V181.7C448.839 186.6 449.819 188.7 451.919 189.96ZM423.639 125C411.039 125 402.639 137.18 406.839 148.52C414.399 145.72 422.799 144.74 429.379 144.74C432.599 144.74 435.399 145.3 437.779 146V145.02C437.779 134.38 433.579 125 423.639 125ZM416.359 189.96C428.539 189.26 434.979 178.9 437.779 168.82V147.26C437.079 146.98 433.719 146 429.379 146C414.119 146 393.399 153.56 399.419 178.2C401.239 185.76 409.359 190.38 416.359 189.96Z" fill="#7A695D"/>
<path d="M376.549 181.7C376.549 186.6 377.529 188.7 379.629 189.96C379.629 190.24 379.629 190.94 379.629 190.94H362.409C362.409 190.94 362.409 190.24 362.409 189.96C364.509 188.7 365.489 186.6 365.489 181.7V100.78C365.489 95.88 365.069 94.48 362.409 94.06C362.409 93.78 362.409 92.94 362.409 92.94L375.569 90H376.549V181.7Z" fill="#7A695D"/>
<path d="M338.382 145.72C346.362 147.82 353.642 155.94 352.522 168.68C351.682 178.62 342.862 191.78 322.982 191.78C303.662 191.78 285.042 182.26 284.482 159.16C283.782 134.94 305.762 124.44 321.162 123.6C333.062 123.04 349.442 128.78 351.402 145.72C350.142 145.72 341.462 145.72 341.462 145.72H338.382ZM314.862 125.28C305.342 127.1 299.182 135.08 296.662 144.6H341.322C339.502 132.42 328.582 122.62 314.862 125.28ZM351.262 168.96C352.942 154.4 343.282 145.72 332.642 145.72H296.382C294.562 153.14 294.982 161.4 297.362 168.12C302.542 182.82 313.042 189.26 327.322 188.7C339.362 188.14 349.862 179.88 351.262 168.96Z" fill="#7A695D"/>
<path d="M288.54 94.0599C282.52 100.36 278.46 106.8 273.84 119.82L252.84 178.9L257.46 190.94H246.4C246.4 190.94 223.16 130.74 218.96 119.82C214.76 109.04 209.58 100.36 204.4 94.0599V92.9399H225.82V94.0599C222.32 97.6999 223.44 102.6 227.36 112.82L252.28 177.5L272.72 119.82C277.2 107.22 277.9 100.36 271.88 94.0599V92.9399H288.54V94.0599Z" fill="#7A695D"/>
<path d="M165.435 209.589V126.575C165.435 81.4416 128.847 44.8535 83.713 44.8535C38.5793 44.8535 1.99121 81.4416 1.99121 126.575V209.589" stroke="#7A695D" stroke-width="3"/>
<path d="M154.811 209.589V126.553C154.811 87.2872 122.979 55.4556 83.7132 55.4556C44.4469 55.4556 12.6152 87.2872 12.6152 126.553V209.589" stroke="#7A695D" stroke-width="3"/>
<path d="M83.8027 71.769C92.1932 78.7276 91.405 90.0025 85.3828 98.4585L84.9248 114.512C86.197 114.759 85.6299 114.146 85.916 113.547C87.4964 110.275 92.3866 104.474 93.0469 102.607C93.9844 99.9468 93.558 96.0671 94.4736 93.0239C96.4062 86.5983 102.917 81.1854 109.573 80.604V89.6323C109.573 93.279 104.783 99.2559 101.794 101.229C97.872 103.818 96.7096 103.057 93.3643 107.324C85.2379 117.682 84.4098 129.024 84.9248 141.818C86.0738 142.06 85.6124 141.579 85.8457 141.183C86.7745 139.624 87.5756 137.955 88.5264 136.396C89.1911 135.308 91.0394 133.569 91.3477 132.578C91.5942 131.794 90.1685 125.667 90.1641 123.976C90.1465 118.726 92.6642 114.661 96.5732 111.416C102.727 106.307 101.464 115.318 102.305 119.352C103.432 117.723 104.885 116.304 105.968 114.648C110.81 107.245 108.319 98.6084 119.795 95.0103C121.477 94.4817 127.877 92.6761 128.022 95.3228C128.075 96.2917 126.9 100.555 126.504 101.722C124.981 106.188 121.331 110.271 116.854 111.887C115.519 112.367 111.018 112.961 110.555 113.292C110.251 113.512 107.297 118.542 106.482 119.568C99.3994 128.469 89.4329 137.057 86.4658 148.428C85.4842 152.194 85.5592 155.678 84.9209 159.43C85.7747 159.655 85.7704 159.095 86.1621 158.694C87.5841 157.245 90.9652 153.99 91.8896 152.533C93.7076 149.666 94.46 144.706 96.124 141.355C98.4352 136.695 103.19 131.741 107.676 129.129C109.511 128.059 113.504 126.914 114.648 125.976C115.48 125.293 117.136 121.611 118.192 120.272C123.083 114.049 129.911 111.997 137.558 114.041C137.672 119.889 132.697 125.725 127.159 127.482C123.18 128.746 120.041 128.05 116.497 128.707C114.758 129.028 109.785 131.618 108.125 132.662C104.018 135.247 100.065 139.312 98.5723 144.02C103.525 137.621 110.748 134.705 118.817 135.211C118.729 139.51 115.216 143.042 112.654 146.217C117.629 146.081 118.906 141.62 122.379 138.995C125.566 136.586 129.136 135.709 133.12 136.096C134.604 136.242 141.749 138.206 141.735 139.832C138.011 145.98 132.12 149.771 124.742 149.318C122.713 149.194 119.848 147.883 118.276 148.063C116.247 148.292 113.072 149.816 110.818 150.327C103.379 152.022 94.0334 151.719 90.208 159.43C93.536 157.871 96.5161 156.21 100.231 155.589C104.77 154.832 107.579 156.549 110.625 156.333C112.716 156.184 115.714 154.294 118.584 154.131C124.139 153.814 130.051 157.122 132.82 161.945C133.718 163.508 135.303 165.587 133.129 166.481C127.912 168.626 120.983 167.727 116.167 164.953C114.168 163.799 110.845 160.025 109.604 159.628C106.821 158.734 103.608 159.214 100.777 159.434C100.522 160.451 100.975 160.161 101.332 160.438L101.426 160.512C104.496 162.918 109.137 166.554 109.137 171.101V180.57C106.047 181.089 101.46 178.289 99.4609 175.937C97.1498 173.211 95.517 166.468 96.7275 163.112C97.0357 162.253 97.7535 162.781 97.6875 162.081C86.4445 162.037 84.9253 174.593 85.8057 183.432C86.2987 188.36 89.3359 193.778 93.584 196.35C103.062 202.093 111.624 197.83 121.556 200.957C125.346 202.15 127.265 204.471 130.54 206.061C132.644 207.087 136.848 206.99 135.039 210.011C129.083 210.984 125.275 205.286 120.143 203.692C113.17 201.525 107.345 203.802 100.685 202.458C97.0353 201.723 94.4114 200.032 91.0879 198.631C91.0576 198.617 86.9072 196.683 85.3701 196.542C83.8277 196.4 82.9472 196.416 81.4033 196.542C79.8645 196.666 75.2673 198.609 75.2363 198.623C71.7718 200.961 67.268 202.617 63.0771 202.969C57.7462 203.418 53.5595 201.838 47.9424 203.243C42.0388 204.72 38.8153 209.79 33.0303 210.038C32.2953 210.069 31.7318 209.438 31.7461 208.703C31.7593 208.026 32.2615 207.467 32.9141 207.288C36.7393 206.237 39.2584 203.182 42.876 201.692C54.2598 197.002 64.3407 203.172 74.9453 195.02C80.6636 190.625 82.02 181.913 81.3994 175.065C80.8271 168.732 76.0593 161.658 69.082 162.068C70.6887 163.57 70.5305 165.05 70.416 167.146C70.1607 171.907 68.3689 176.02 64.2002 178.54C63.1877 179.152 59.058 181.292 58.2656 180.605C56.8966 176.954 57.5655 171.722 58.9434 167.996C60.4885 163.812 62.0474 163.486 64.8867 160.729C65.3181 160.311 65.719 160.152 65.5518 159.417C62.9149 159.24 59.6519 158.783 57.0635 159.509C56.0456 159.797 51.4725 164.389 49.3994 165.495C47.106 166.723 43.7606 167.727 41.168 167.736C40.0674 167.736 33.6618 166.754 32.9707 166.248C31.0914 164.865 35.8934 159.219 37.1484 158.083C40.6305 154.929 44.6588 153.603 49.3691 154.242C51.4294 154.519 54.577 156.338 56.0781 156.351C57.5793 156.364 60.3567 155.034 62.2715 154.995C66.6736 154.898 73.0573 156.889 76.3369 159.853C76.7815 158.831 74.919 156.752 74.0605 155.963C69.7552 152.013 62.2097 151.7 56.6543 150.476C54.2771 149.952 50.1305 148.173 48.0439 148.063C46.4064 147.975 43.3471 149.296 41.124 149.318C37.2326 149.358 32.408 147.622 29.4453 145.103C28.1423 143.993 24.3205 140.17 26.2002 138.765C31.2582 134.982 39.3805 135.251 44.3857 138.963C47.7886 141.487 49.0963 146.199 54.1016 146.195C52.3318 143.997 47.9645 139.373 47.5684 136.629C47.1723 133.886 54.9639 135.726 56.835 136.198C62.0603 137.523 63.9886 140.03 67.748 143.553C66.018 139.118 61.9419 134.964 57.9316 132.458C52.1781 128.865 50.5092 129.305 44.2539 128.526C37.6684 127.707 32.2181 124.28 29.8145 117.873C28.2561 113.724 30.2199 113.829 34.0586 113.583C39.0593 113.261 43.7786 114.463 47.3486 118.163C49.1843 120.065 50.9056 124.98 52.1074 125.954C53.3753 126.975 57.9482 128.323 60.1494 129.798C64.5868 132.771 68.4217 137.294 70.7812 142.064C74.4746 149.529 74.1352 151.864 80.4258 158.395C80.8571 158.84 80.8664 159.641 81.8389 159.399C81.1697 153.599 80.2858 147.767 77.957 142.368C74.9988 135.506 68.1044 128.953 63.3633 123.056C61.6201 120.889 58.037 114.997 56.5049 113.623C55.4968 112.715 50.6899 112.037 48.8232 111.178C42.3302 108.175 38.9358 101.172 39.1338 94.2222C47.3658 93.24 55.3777 97.6395 57.7637 105.756C58.2435 107.39 58.1293 109.346 58.7588 110.927C59.7935 113.526 63.1256 116.595 64.2305 119.326L65.9736 110.292C67.2458 108.346 68.4123 109.831 69.7373 110.954C76.7058 116.829 77.7673 123.597 75.333 132.269L81.8301 142.676C82.2703 130.318 82.0552 119.431 74.7168 109.059C70.46 103.043 68.7776 103.946 63.8252 100.136C57.4646 95.2477 56.382 88.1618 57.1875 80.5825C65.6175 81.186 72.1371 87.7482 73.0264 96.2173C73.2067 97.926 72.6874 100.326 73.123 101.845C73.6161 103.563 78.1944 107.465 78.9385 109.68L81.835 114.93V97.9751C81.6736 97.5385 79.7055 95.22 79.2773 94.3979C76.4996 89.0293 76.174 82.9031 78.8857 77.4243C79.5726 76.0324 82.3413 71.6325 83.8027 71.769ZM99.4531 163.404C99.9681 168.971 99.8977 174.423 106.052 176.612C106.474 171.441 104.845 165.302 99.4531 163.404ZM67.3125 163.399C62.7871 164.888 60.7965 170.763 60.748 175.127C60.7392 175.876 60.6734 176.123 61.373 176.603C66.7525 173.864 67.0924 168.887 67.3125 163.399ZM53.2295 158.558C48.7927 157.197 45.7639 156.603 41.4766 158.902C39.9138 159.739 34.6492 163.729 38.4785 164.284C44.7494 165.191 48.9302 162.972 53.2295 158.558L53.2305 158.559L53.2344 158.554C53.2329 158.556 53.2309 158.557 53.2295 158.558ZM130.268 163.834C126.882 158.259 119.966 155.445 113.988 158.774C118.197 163.557 124.039 165.429 130.268 163.834ZM52.3486 138.74C55.7603 144.531 60.8715 148.437 67.752 148.865C67.9456 148.037 67.281 147.821 66.876 147.324C62.9537 142.545 58.7318 139.277 52.3486 138.74ZM114.42 138.74C108.878 138.916 104.488 141.638 100.988 145.778C100.631 146.197 98.6909 148.548 99.0166 148.865C105.968 148.473 110.731 144.245 114.42 138.74ZM136.867 140.506C130.814 137.556 123.696 139.652 121.023 145.783C125.377 146.232 128.692 146.645 132.698 144.474C133.376 144.109 137.448 141.281 136.867 140.506ZM45.7471 145.337C41.9129 139.533 36.4717 137.613 29.8994 140.501C33.6809 145.738 39.6897 147.187 45.7471 145.337ZM69.5186 115.173C69.0743 114.834 68.9643 114.324 68.1943 114.513H68.1982V121.78C68.1983 123.629 71.3103 127.765 72.8203 129.046C74.0925 124.722 73.3132 118.076 69.5186 115.173ZM98.5684 114.513C98.0798 114.051 96.2709 116.102 95.9404 116.503C92.8017 120.335 93.3954 124.462 93.7344 129.046C98.0132 125.651 99.7832 119.754 98.5684 114.513ZM47.9434 125.523C45.4121 119.498 39.7244 115.641 32.9805 116.724C35.4678 123.515 41.3755 124.924 47.9434 125.523ZM133.784 116.275C127.04 116.081 121.916 119.111 118.821 125.079C125.156 125.594 132.455 123.299 133.784 116.275ZM124.101 97.3413C117.211 97.7246 112.338 103.578 111.339 110.109C118.118 108.779 123.519 104.63 124.101 97.3413ZM42.665 97.3374C43.6292 104.349 48.3924 108.947 55.4268 109.665C54.8457 106.555 53.583 103.287 51.3115 101.014C49.062 98.7592 45.8346 97.5048 42.665 97.3374ZM60.2773 84.5688C59.6083 91.7564 63.4081 97.3316 69.9541 99.9829C70.1697 96.1733 68.6595 90.4877 65.8467 87.8013C65.4373 87.4137 60.471 84.309 60.2773 84.5688ZM106.491 85.0093C99.8572 86.881 96.5425 93.3419 96.8154 99.979C102.97 97.7769 107.262 91.6771 106.491 85.0093ZM84.0352 76.2007L83.1289 76.4741C79.0526 82.2567 79.352 88.9548 83.3887 94.689C84.2863 94.8958 83.983 94.3194 84.2559 93.8218C87.6542 87.6341 87.8604 82.2523 84.0352 76.1968V76.2007Z" fill="#7A695D"/>
<path d="M83.7109 2.18652C85.8095 4.49036 87.9312 7.2727 89.6016 10.2422C91.5667 13.7357 92.8445 17.3745 92.8369 20.7402C92.8176 26.9828 88.5006 31.089 83.6895 35.498C78.7936 31.1716 74.6033 26.856 74.5889 20.7412C74.5811 17.4476 75.8711 13.7851 77.8486 10.2549C79.5238 7.26441 81.6411 4.46032 83.7109 2.18652Z" stroke="#7A695D" stroke-width="3"/>
<path d="M83.7129 46.0774V35.0679" stroke="#7A695D" stroke-width="3"/>
</svg>
